REM DIRINDEX 1\2,1\3,1\4,1\5
REM DIRNAME folder01,folder02,folder03,folder04,folder05
TITLE ""
FILE "156.mp3" MP3
  TRACK 01 AUDIO
    TITLE "0:"
    INDEX 01 00:00:00
  TRACK 02 AUDIO
    TITLE "2:cjc046_4438"
    INDEX 01 00:00:13
  TRACK 03 AUDIO
    TITLE "0:"
    INDEX 01 00:01:24
  TRACK 04 AUDIO
    TITLE "3:cjc046_4439"
    INDEX 01 00:01:42
  TRACK 05 AUDIO
    TITLE "0:"
    INDEX 01 00:02:57
  TRACK 06 AUDIO
    TITLE "4:cjc046_4440"
    INDEX 01 00:02:71
  TRACK 07 AUDIO
    TITLE "0:"
    INDEX 01 00:04:09
  TRACK 08 AUDIO
    TITLE "2:cjc046_4441"
    INDEX 01 00:05:16
  TRACK 09 AUDIO
    TITLE "0:"
    INDEX 01 00:06:16
  TRACK 10 AUDIO
    TITLE "3:cjc046_4442"
    INDEX 01 00:06:35
  TRACK 11 AUDIO
    TITLE "0:"
    INDEX 01 00:07:49
  TRACK 12 AUDIO
    TITLE "4:cjc046_4443"
    INDEX 01 00:07:62
  TRACK 13 AUDIO
    TITLE "0:"
    INDEX 01 00:08:60
  TRACK 14 AUDIO
    TITLE "2:cjc046_4444"
    INDEX 01 00:09:71
  TRACK 15 AUDIO
    TITLE "0:"
    INDEX 01 00:10:66
  TRACK 16 AUDIO
    TITLE "3:cjc046_4445"
    INDEX 01 00:11:15
  TRACK 17 AUDIO
    TITLE "0:"
    INDEX 01 00:12:67
  TRACK 18 AUDIO
    TITLE "4:cjc046_4446"
    INDEX 01 00:13:08
  TRACK 19 AUDIO
    TITLE "0:"
    INDEX 01 00:14:07
  TRACK 20 AUDIO
    TITLE "2:cjc046_4447"
    INDEX 01 00:15:15
  TRACK 21 AUDIO
    TITLE "0:"
    INDEX 01 00:16:36
  TRACK 22 AUDIO
    TITLE "3:cjc046_4448"
    INDEX 01 00:16:57
  TRACK 23 AUDIO
    TITLE "0:"
    INDEX 01 00:18:42
  TRACK 24 AUDIO
    TITLE "4:cjc046_4449"
    INDEX 01 00:18:52
  TRACK 25 AUDIO
    TITLE "0:"
    INDEX 01 00:20:00
  TRACK 26 AUDIO
    TITLE "2:cjc046_4450"
    INDEX 01 00:21:09
  TRACK 27 AUDIO
    TITLE "0:"
    INDEX 01 00:22:19
  TRACK 28 AUDIO
    TITLE "3:cjc046_4451"
    INDEX 01 00:22:32
  TRACK 29 AUDIO
    TITLE "0:"
    INDEX 01 00:23:55
  TRACK 30 AUDIO
    TITLE "4:cjc046_4452"
    INDEX 01 00:23:67
  TRACK 31 AUDIO
    TITLE "0:"
    INDEX 01 00:25:01
  TRACK 32 AUDIO
    TITLE "2:cjc046_4453"
    INDEX 01 00:26:09
  TRACK 33 AUDIO
    TITLE "0:"
    INDEX 01 00:27:39
  TRACK 34 AUDIO
    TITLE "3:cjc046_4454"
    INDEX 01 00:27:55
  TRACK 35 AUDIO
    TITLE "0:"
    INDEX 01 00:29:07
  TRACK 36 AUDIO
    TITLE "4:cjc046_4455"
    INDEX 01 00:29:25
  TRACK 37 AUDIO
    TITLE "0:"
    INDEX 01 00:30:52
  TRACK 38 AUDIO
    TITLE "2:cjc046_4456"
    INDEX 01 00:31:63
  TRACK 39 AUDIO
    TITLE "0:"
    INDEX 01 00:32:60
  TRACK 40 AUDIO
    TITLE "3:cjc046_4457"
    INDEX 01 00:33:07
  TRACK 41 AUDIO
    TITLE "0:"
    INDEX 01 00:34:10
  TRACK 42 AUDIO
    TITLE "4:cjc046_4458"
    INDEX 01 00:34:28
  TRACK 43 AUDIO
    TITLE "0:"
    INDEX 01 00:35:27
  TRACK 44 AUDIO
    TITLE "2:cjc046_4459"
    INDEX 01 00:36:33
  TRACK 45 AUDIO
    TITLE "0:"
    INDEX 01 00:37:48
  TRACK 46 AUDIO
    TITLE "3:cjc046_4460"
    INDEX 01 00:37:63
  TRACK 47 AUDIO
    TITLE "0:"
    INDEX 01 00:39:27
  TRACK 48 AUDIO
    TITLE "4:cjc046_4461"
    INDEX 01 00:39:37
  TRACK 49 AUDIO
    TITLE "0:"
    INDEX 01 00:40:48
  TRACK 50 AUDIO
    TITLE "2:cjc046_4462"
    INDEX 01 00:41:59
  TRACK 51 AUDIO
    TITLE "0:"
    INDEX 01 00:42:66
  TRACK 52 AUDIO
    TITLE "3:cjc046_4463"
    INDEX 01 00:43:15
  TRACK 53 AUDIO
    TITLE "0:"
    INDEX 01 00:44:30
  TRACK 54 AUDIO
    TITLE "4:cjc046_4464"
    INDEX 01 00:44:50
  TRACK 55 AUDIO
    TITLE "0:"
    INDEX 01 00:45:57
  TRACK 56 AUDIO
    TITLE "2:cjc046_4465"
    INDEX 01 00:46:68
  TRACK 57 AUDIO
    TITLE "0:"
    INDEX 01 00:48:00
  TRACK 58 AUDIO
    TITLE "3:cjc046_4466"
    INDEX 01 00:48:22
  TRACK 59 AUDIO
    TITLE "0:"
    INDEX 01 00:49:25
  TRACK 60 AUDIO
    TITLE "4:cjc046_4467"
    INDEX 01 00:49:41
  TRACK 61 AUDIO
    TITLE "0:"
    INDEX 01 00:50:48
  TRACK 62 AUDIO
    TITLE "2:cjc046_4468"
    INDEX 01 00:51:58
  TRACK 63 AUDIO
    TITLE "0:"
    INDEX 01 00:52:73
  TRACK 64 AUDIO
    TITLE "3:cjc046_4469"
    INDEX 01 00:53:19
  TRACK 65 AUDIO
    TITLE "0:"
    INDEX 01 00:54:15
  TRACK 66 AUDIO
    TITLE "4:cjc046_4470"
    INDEX 01 00:54:36
  TRACK 67 AUDIO
    TITLE "0:"
    INDEX 01 00:55:51
  TRACK 68 AUDIO
    TITLE "2:cjc046_4471"
    INDEX 01 00:56:57
  TRACK 69 AUDIO
    TITLE "0:"
    INDEX 01 00:58:03
  TRACK 70 AUDIO
    TITLE "3:cjc046_4472"
    INDEX 01 00:58:24
  TRACK 71 AUDIO
    TITLE "0:"
    INDEX 01 00:59:43
  TRACK 72 AUDIO
    TITLE "4:cjc046_4473"
    INDEX 01 00:59:57
  TRACK 73 AUDIO
    TITLE "0:"
    INDEX 01 01:01:03
  TRACK 74 AUDIO
    TITLE "2:cjc046_4474"
    INDEX 01 01:02:14
  TRACK 75 AUDIO
    TITLE "0:"
    INDEX 01 01:03:26
  TRACK 76 AUDIO
    TITLE "3:cjc046_4475"
    INDEX 01 01:03:47
  TRACK 77 AUDIO
    TITLE "0:"
    INDEX 01 01:04:43
  TRACK 78 AUDIO
    TITLE "4:cjc046_4476"
    INDEX 01 01:04:64
  TRACK 79 AUDIO
    TITLE "0:"
    INDEX 01 01:06:00
  TRACK 80 AUDIO
    TITLE "2:cjc046_4477"
    INDEX 01 01:07:10
  TRACK 81 AUDIO
    TITLE "0:"
    INDEX 01 01:08:09
  TRACK 82 AUDIO
    TITLE "3:cjc046_4478"
    INDEX 01 01:08:29
  TRACK 83 AUDIO
    TITLE "0:"
    INDEX 01 01:09:30
  TRACK 84 AUDIO
    TITLE "4:cjc046_4479"
    INDEX 01 01:09:42
  TRACK 85 AUDIO
    TITLE "0:"
    INDEX 01 01:10:43
  TRACK 86 AUDIO
    TITLE "2:cjc046_4480"
    INDEX 01 01:11:47
  TRACK 87 AUDIO
    TITLE "0:"
    INDEX 01 01:12:58
  TRACK 88 AUDIO
    TITLE "3:cjc046_4481"
    INDEX 01 01:13:00
  TRACK 89 AUDIO
    TITLE "0:"
    INDEX 01 01:14:12
  TRACK 90 AUDIO
    TITLE "4:cjc046_4482"
    INDEX 01 01:14:16
  TRACK 91 AUDIO
    TITLE "0:"
    INDEX 01 01:15:27
  TRACK 92 AUDIO
    TITLE "2:cjc046_4483"
    INDEX 01 01:16:32
  TRACK 93 AUDIO
    TITLE "0:"
    INDEX 01 01:17:43
  TRACK 94 AUDIO
    TITLE "3:cjc046_4484"
    INDEX 01 01:17:59
  TRACK 95 AUDIO
    TITLE "0:"
    INDEX 01 01:19:19
  TRACK 96 AUDIO
    TITLE "4:cjc046_4485"
    INDEX 01 01:19:30
  TRACK 97 AUDIO
    TITLE "0:"
    INDEX 01 01:20:42
